<?xml version="1.0" encoding="UTF-8"?>
<svg id="Layer_5" xmlns="http://www.w3.org/2000/svg" version="1.1" viewBox="0 0 961.64 963.7">
  <!-- Generator: Adobe Illustrator 30.2.1, SVG Export Plug-In . SVG Version: 2.1.1 Build 1)  -->
  <defs>
    <style>
      .st0 {
        fill: #f4d464;
      }

      .st1 {
        fill: #fbef75;
      }
    </style>
  </defs>
  <path class="st0" d="M907.05,33.83c13.79,0,25,11.04,25,24.61v847.7c0,10.14-1.93,19.47-5.28,25.6-3.42,6.24-6.73,6.33-8.75,6.33l-865.93-7.33h-.16c-13.79,0-25-11.04-25-24.61V58.44c0-13.57,11.21-24.61,25-24.61h855.13M907.05,13.83H51.93C27.08,13.83,6.93,33.8,6.93,58.44v847.7c0,24.64,20.15,44.61,45,44.61l866.01,7.33c24.85,0,34.12-27.3,34.12-51.94V58.44c0-24.64-20.15-44.61-45-44.61h-.01Z"/>
  <path class="st0" d="M916.64,20c13.79,0,25,11.22,25,25v873.7c0,13.79-11.21,25-25,25H45c-13.79,0-25-11.22-25-25V45c0-13.78,11.21-25,25-25h871.64M916.64,0H45C20.15,0,0,20.15,0,45v873.7c0,24.85,20.15,45,45,45h871.64c24.85,0,45-20.15,45-45V45c0-24.85-20.15-45-45-45h0Z"/>
  <path class="st1" d="M916.64,20c13.79,0,25,11.21,25,25v860.68c0,13.78-11.21,25-25,25H55.96c-13.79,0-25-11.22-25-25V45c0-13.79,11.21-25,25-25h860.68M916.64,0H55.96C31.11,0,10.96,20.15,10.96,45v860.68c0,24.85,20.15,45,45,45h860.68c24.85,0,45-20.15,45-45V45c0-24.85-20.14-45-45-45h0Z"/>
</svg>