<?xml version="1.0" encoding="UTF-8"?>
<svg id="Layer_4" data-name="Layer 4" xmlns="http://www.w3.org/2000/svg" viewBox="0 0 964.3 963.7">
  <defs>
    <style>
      .cls-1 {
        fill: #de8f94;
      }

      .cls-2 {
        fill: #ce6c77;
      }
    </style>
  </defs>
  <path class="cls-2" d="M908.38,33.83c13.79,0,25,11.04,25,24.61v847.7c0,10.14-1.93,19.47-5.28,25.6-3.42,6.24-6.73,6.33-8.75,6.33l-865.93-7.33h-.08s-.08,0-.08,0c-13.79,0-25-11.04-25-24.61V58.44c0-13.57,11.21-24.61,25-24.61h855.13M908.38,13.83H53.26c-24.85,0-45,19.97-45,44.61v847.7c0,24.64,20.15,44.61,45,44.61l866.01,7.33c24.85,0,34.12-27.3,34.12-51.94V58.44c0-24.64-20.15-44.61-45-44.61h0Z"/>
  <path class="cls-2" d="M917.97,20c13.79,0,25,11.22,25,25v873.7c0,13.79-11.21,25-25,25H46.33c-13.79,0-25-11.22-25-25V45c0-13.78,11.21-25,25-25h871.64M917.97,0H46.33C21.48,0,1.33,20.15,1.33,45v873.7c0,24.85,20.15,45,45,45h871.64c24.85,0,45-20.15,45-45V45c0-24.85-20.15-45-45-45h0Z"/>
  <path class="cls-1" d="M917.97,20c13.79,0,25,11.21,25,25v860.68c0,13.78-11.21,25-25,25H57.29c-13.79,0-25-11.22-25-25V45c0-13.79,11.21-25,25-25h860.68M917.97,0H57.29C32.44,0,12.29,20.15,12.29,45v860.68c0,24.85,20.15,45,45,45h860.68c24.85,0,45-20.15,45-45V45C962.97,20.15,942.83,0,917.97,0h0Z"/>
</svg>